<?xml version="1.0" encoding="UTF-8"?>
<svg id="Capa_1" data-name="Capa 1" xmlns="http://www.w3.org/2000/svg" viewBox="0 0 100 100">
  <defs>
    <style>
      .cls-1 {
        fill: #fff;
      }
    </style>
  </defs>
  <path d="M9.43,70.91V31.75c0-11.81,9.67-21.48,21.48-21.48h39.16c11.81,0,21.48,9.67,21.48,21.48v39.16c0,11.81-9.67,21.48-21.48,21.48H30.91c-11.81,0-21.48-9.67-21.48-21.48Z"/>
  <path class="cls-1" d="M63.24,35.86c-1.56,0-2.82,1.26-2.82,2.82s1.26,2.82,2.82,2.82,2.82-1.26,2.82-2.82-1.26-2.82-2.82-2.82Z"/>
  <path class="cls-1" d="M50.69,39.48c-6.54,0-11.86,5.32-11.86,11.86s5.32,11.86,11.86,11.86,11.86-5.32,11.86-11.86c0-6.54-5.32-11.86-11.86-11.86ZM50.69,58.93c-4.19,0-7.59-3.41-7.59-7.59s3.41-7.59,7.59-7.59,7.59,3.41,7.59,7.59c0,4.18-3.4,7.59-7.59,7.59Z"/>
  <path class="cls-1" d="M60.1,75.41h-19.22c-7.97,0-14.46-6.49-14.46-14.46v-19.22c0-7.98,6.49-14.46,14.46-14.46h19.22c7.97,0,14.46,6.49,14.46,14.46v19.22c0,7.97-6.49,14.46-14.46,14.46ZM40.88,31.79c-5.48,0-9.93,4.45-9.93,9.93v19.22c0,5.48,4.45,9.93,9.93,9.93h19.22c5.48,0,9.93-4.45,9.93-9.93v-19.22c0-5.48-4.46-9.93-9.93-9.93h-19.22Z"/>
</svg>