<?xml version="1.0" encoding="UTF-8"?>
<svg id="Capa_2" data-name="Capa 2" xmlns="http://www.w3.org/2000/svg" viewBox="0 0 408.5 841.54">
  <defs>
    <style>
      .cls-1 {
        stroke-miterlimit: 10;
      }

      .cls-1, .cls-2 {
        fill: none;
        stroke-width: 2px;
      }

      .cls-1, .cls-2, .cls-3 {
        stroke: #000;
      }

      .cls-2, .cls-3 {
        stroke-linecap: round;
        stroke-linejoin: round;
      }
    </style>
  </defs>
  <g id="Capa_3" data-name="Capa 3">
    <path class="cls-1" d="M258.54,21.03h30.49c65.43,0,118.46,53.04,118.46,118.46v677.26H1V139.49C1,74.07,54.04,21.03,119.46,21.03h42.82"/>
    <g>
      <polygon points="227.29 30.44 215.98 22.18 209.13 7.61 201.28 24.18 193.06 30.44 227.29 30.44"/>
      <polygon points="176.42 30.44 169.1 25.11 164.68 15.7 159.61 26.4 152.03 30.44 176.42 30.44"/>
      <polygon points="266.78 30.44 259.69 25.11 255.27 15.7 250.2 26.4 243.07 30.44 266.78 30.44"/>
    </g>
    <polyline class="cls-2" points="167.95 21.03 169.48 21.03 200.69 21.03 204.07 21.03"/>
    <polyline class="cls-2" points="215.84 21.03 217.38 21.03 248.59 21.03 251.97 21.03"/>
    <path class="cls-2" d="M146.22,805.94h251.46V142.24c0-61.23-49.63-110.87-110.87-110.87H121.69c-61.23,0-110.87,49.64-110.87,110.87v663.71h138.69"/>
    <path d="M210.74,0h-1.74c0,16.99-13.77,30.76-30.76,30.76v.78h11c11.84-2.33,18.4-9.02,20.63-20.99,2.23,11.97,8.79,18.65,20.64,20.99h10.99v-.78c-16.99,0-30.76-13.77-30.76-30.76Z"/>
    <path d="M256.16,8.29h-1.28c0,12.53-10.16,22.68-22.68,22.68v.58h8.11c8.73-1.72,13.57-6.65,15.21-15.47,1.64,8.83,6.48,13.75,15.22,15.47h8.11v-.58c-12.53,0-22.68-10.16-22.68-22.68Z"/>
    <path d="M165.57,8.29h-1.28c0,12.53-10.16,22.68-22.68,22.68v.58h8.11c8.73-1.72,13.57-6.65,15.21-15.47,1.64,8.83,6.48,13.75,15.22,15.47h8.11v-.58c-12.53,0-22.68-10.16-22.68-22.68Z"/>
    <polygon points="203.74 833.45 207.3 821.09 214.94 806.87 221.84 800.38 230.4 792.47 234.82 791.96 241.54 796.34 248 803.09 252.54 813.74 253.77 819.06 256.7 808.59 263.62 799 273.24 793.01 280.98 790.07 279.41 787.99 268.63 783.73 258.03 772.32 254.01 761.8 250.39 771.09 244.24 779.72 241.65 782.05 232.87 776.84 221.47 768.2 212.03 758.58 207.35 750.3 203.13 737.22 199.89 745.52 195.6 755.44 189.4 764.85 179.56 772.69 169.6 779.95 165.31 781.8 160.2 775.07 155.88 768.16 152.65 761.17 149.02 772.69 139.49 783.11 129.6 787.43 123.78 789.58 131.64 791.86 139.19 795.14 143.27 799.94 148.74 807.14 153.05 816.29 154.54 811.63 158.76 803.78 164.73 798.45 170.17 794.3 173.46 791.46 185.79 800.67 194.43 812.45 200.3 823.05 203.13 833.8 203.74 833.45"/>
    <path class="cls-3" d="M242.46,781.37c-.34-.12-.67-.25-1.01-.38-21.47-8.24-38.32-30.01-38.32-53.09,0,22.82-16.5,44.39-37.63,52.82-.33.14-.66.26-.99.39-5.74,2.16-11.79,3.36-17.95,3.36,9.22,0,18.24,2.69,26.26,7.29.32.18.64.37.96.57,17.01,10.17,29.35,28.97,29.35,48.71,0-19.92,12.55-38.87,29.8-48.97.32-.2.65-.38.98-.56,7.91-4.46,16.76-7.04,25.8-7.04-5.9,0-11.72-1.11-17.24-3.1ZM232.81,791.02c-.33.18-.65.37-.98.57-14.54,8.69-25.59,23.56-28.69,40.14-3.06-16.42-13.95-31.17-28.28-39.89-.32-.21-.64-.4-.97-.58-5.59-3.26-11.67-5.61-18.01-6.79,3.22-.6,6.38-1.51,9.44-2.67.34-.13.67-.26,1-.4,18.44-7.45,33.17-24.63,36.82-44.18,3.69,19.78,18.74,37.14,37.5,44.45.34.14.68.26,1.02.38,2.84,1.05,5.76,1.86,8.74,2.42-6.17,1.15-12.11,3.41-17.58,6.55Z"/>
    <path class="cls-3" d="M254.05,755.44c0,9.78-5.07,19.17-12.6,25.55-.27.24-.54.46-.82.68.34.14.68.26,1.02.38.28-.22.54-.44.81-.68,5.64-4.9,9.85-11.49,11.59-18.7,3.06,12.73,13.85,23.5,26.57,26.57-12.72,3.06-23.5,13.85-26.57,26.57-2.53-10.51-10.33-19.7-20.14-24.3-.37-.17-.73-.34-1.1-.5-.33.18-.65.37-.98.57.37.15.74.3,1.11.48,11.97,5.4,21.12,17.84,21.12,30.98,0-17.53,16.28-33.81,33.81-33.81-17.53,0-33.81-16.28-33.81-33.8Z"/>
    <path class="cls-3" d="M173.89,791.26c-.36.17-.71.33-1.06.5-9.56,4.68-17.11,13.73-19.59,24.04-3.06-12.72-13.85-23.5-26.57-26.57,12.72-3.06,23.5-13.84,26.57-26.57,1.7,7.09,5.8,13.56,11.28,18.44.26.24.53.47.8.69.34-.13.67-.26,1-.4-.28-.22-.55-.44-.81-.68-7.35-6.37-12.27-15.64-12.27-25.28,0,17.52-16.28,33.8-33.81,33.8,17.53,0,33.81,16.28,33.81,33.81,0-12.94,8.86-25.19,20.55-30.72.35-.17.71-.34,1.07-.49-.32-.21-.64-.4-.97-.58Z"/>
    <path d="M379.43,585.73c.1,58.97,1.33,145.37.48,203.52,0,0,0,.73,0,.73,0,0-.71,0-.71,0,0,0-45.66-.25-45.66-.25,0,0-45.66-.37-45.66-.37,0,0,0-.2,0-.2,22.78-.23,68.56-.51,91.33-.62,0,0-.72.72-.72.72-.51-57.72.15-145.44.96-203.52h0Z"/>
    <path d="M29.27,585.7c.25,58.97,1.48,145.37.76,203.52,0,0-.72-.72-.72-.72,22.45.08,67.68.42,90.13.62,0,0,0,.2,0,.2l-45.07.37-45.07.25s-.71,0-.71,0c0,0,0-.73,0-.73-.65-57.72-.01-145.44.68-203.52h0Z"/>
  </g>
</svg>