<?xml version="1.0" encoding="UTF-8"?>
<svg id="Capa_2" data-name="Capa 2" xmlns="http://www.w3.org/2000/svg" viewBox="0 0 109.19 109.44">
  <defs>
    <style>
      .cls-1 {
        fill: #fff;
      }
    </style>
  </defs>
  <g id="Capa_3" data-name="Capa 3">
    <g>
      <rect class="cls-1" y="0" width="109.19" height="79.26" rx="14.41" ry="14.41"/>
      <rect class="cls-1" x="0" y="85.58" width="109.19" height="23.86" rx="8.8" ry="8.8"/>
      <path d="M38.72,57.87V21.78c0-2.04,2.28-3.26,3.98-2.13l30.08,20.05c1.61,1.07,1.49,3.48-.22,4.39l-30.08,16.04c-1.71.91-3.77-.33-3.77-2.26Z"/>
      <g>
        <path d="M9.48,93.6h-.64v-.66h.64v.66ZM9.48,97.23h-.64v-3.28h.64v3.28Z"/>
        <path d="M13.84,96.37h-3.24l-.02-.14v-4.14h3.26v.65h-2.61v1.08h2.24v.65h-2.24v1.26h2.62v.64Z"/>
        <path d="M17.28,96.4h-1.4l-1.25-.91.55-.4.91.66h.97l.72-.52v-.3l-3.05-.81v-1.2l1.14-.84h1.4l1.25.91-.55.4-.91-.66h-.97l-.72.52v.37l3.05.82v1.12l-1.15.84Z"/>
        <path d="M22.03,96.37h-1.4l-1.24-.9v-2.5l1.24-.9h1.4l1.25.91-.55.4-.91-.66h-.97l-.77.56v1.88l.77.56h.97l.91-.66.55.4-1.25.91Z"/>
        <path d="M26.69,96.37h-1.4l-1.15-.84v-3.46h.64v3.12l.72.52h.97l.73-.53v-3.11h.64v3.45l-1.16.84Z"/>
        <path d="M31.5,96.37h-1.4l-1.24-.9v-2.5l1.24-.9h1.4l1.25.91-.55.4-.91-.66h-.97l-.77.56v1.88l.77.56h.97l.91-.66.55.4-1.25.91Z"/>
        <path d="M37.08,96.37h-.64v-1.91h-2.15v1.91h-.64v-4.29h.64v1.74h2.15v-1.74h.64v4.29Z"/>
        <path d="M41.73,96.37h-.65v-.98l-.09-.21h-2.24l-.1.21v.98h-.64v-1.12l1.46-3.17h.79l1.46,3.17v1.12ZM39.05,94.54h1.64l-.82-1.78-.82,1.78Z"/>
        <path d="M47.12,96.37h-.64v-3.65h-1.46v-.64h3.56v.64h-1.46v3.65Z"/>
        <path d="M51.92,96.37h-1.4l-1.15-.84v-3.46h.64v3.12l.72.52h.97l.73-.53v-3.11h.64v3.45l-1.16.84Z"/>
        <path d="M59.31,96.4h-1.4l-1.25-.91.55-.4.91.66h.97l.72-.52v-.3l-3.05-.81v-1.2l1.14-.84h1.4l1.25.91-.55.4-.91-.66h-.97l-.72.52v.37l3.05.82v1.12l-1.15.84Z"/>
        <path d="M63.98,96.34h-1.37l-1.16-.84v-2.55l1.16-.85h1.37l1.16.85v2.55l-1.16.84ZM62.81,95.7h.96l.73-.53v-1.89l-.73-.53h-.96l-.73.53v1.89l.73.53Z"/>
        <path d="M68.71,96.37h-1.4l-1.15-.84v-3.46h.64v3.12l.72.52h.97l.73-.53v-3.11h.64v3.45l-1.16.84Z"/>
        <path d="M74.21,96.37l-2.6-3.26v3.26h-.64v-4.29h.62l2.6,3.26v-3.26h.64v4.29h-.62Z"/>
        <path d="M78.13,96.37h-2.15v-4.29h2.15l1.22.89v2.51s-1.22.9-1.22.9ZM76.63,95.73h1.3l.77-.56v-1.88l-.77-.56h-1.3v3Z"/>
        <path d="M82.22,96.37h-.64v-3.65h-1.46v-.64h3.56v.64h-1.46v3.65Z"/>
        <path d="M87.89,96.37h-.62v-.84l-.74-.53h-1.37v1.37h-.64v-4.29h2.23l1.15.84v1.25l-.7.51.7.52v1.18ZM85.16,94.35h1.37l.72-.52v-.58l-.72-.52h-1.37v1.62Z"/>
        <path d="M92.47,96.37h-.65v-.98l-.09-.21h-2.24l-.1.21v.98h-.64v-1.12l1.46-3.17h.79l1.46,3.17v1.12ZM89.79,94.54h1.64l-.82-1.78-.82,1.78Z"/>
        <path d="M95.94,96.37h-1.4l-1.24-.9v-2.5l1.24-.9h1.4l1.25.91-.55.4-.91-.66h-.97l-.77.56v1.88l.77.56h.97l.91-.66.55.4-1.25.91Z"/>
        <path d="M101.4,96.37h-.62v-1.33l-.73-.53h-1.32v1.86h-.64v-4.29h.64v1.79h1.16l.9-1.79h.73l-.99,1.98.88.64v1.67Z"/>
        <path d="M21.11,103.24h-2.15v-4.29h2.15l1.22.89v2.51s-1.22.9-1.22.9ZM19.61,102.59h1.3l.77-.56v-1.88l-.77-.56h-1.3v3Z"/>
        <path d="M26.66,103.24h-3.24l-.02-.14v-4.14h3.26v.65h-2.61v1.08h2.24v.65h-2.24v1.26h2.62v.64Z"/>
        <path d="M32.1,103.24h-.64v-3.65h-1.46v-.64h3.56v.64h-1.46v3.65Z"/>
        <path d="M37.77,103.24h-.62v-.84l-.74-.53h-1.37v1.37h-.64v-4.29h2.23l1.15.84v1.25l-.7.51.7.52v1.18ZM35.04,101.22h1.37l.72-.52v-.58l-.72-.52h-1.37v1.62Z"/>
        <path d="M42.35,103.24h-.65v-.98l-.09-.21h-2.24l-.1.21v.98h-.64v-1.12l1.46-3.17h.79l1.46,3.17v1.12ZM39.67,101.41h1.64l-.82-1.78-.82,1.78Z"/>
        <path d="M46.52,103.24l-2.6-3.26v3.26h-.64v-4.29h.62l2.6,3.26v-3.26h.64v4.29h-.62Z"/>
        <path d="M50.75,103.26h-1.4l-1.25-.91.55-.4.91.66h.97l.72-.52v-.3l-3.05-.81v-1.2l1.14-.84h1.4l1.25.91-.55.4-.91-.66h-.97l-.72.52v.37l3.05.82v1.12l-1.15.84Z"/>
        <path d="M53.61,103.24h-.64v-4.28h3.26v.65h-2.61v1.08h2.24v.65h-2.24v1.91Z"/>
        <path d="M59.53,103.2h-1.37l-1.16-.84v-2.55l1.16-.85h1.37l1.16.85v2.55l-1.16.84ZM58.37,102.56h.96l.73-.53v-1.89l-.73-.53h-.96l-.73.53v1.89l.73.53Z"/>
        <path d="M65.14,103.24h-.62v-.84l-.74-.53h-1.37v1.37h-.64v-4.29h2.23l1.15.84v1.25l-.7.51.7.52v1.18ZM62.4,101.22h1.37l.72-.52v-.58l-.72-.52h-1.37v1.62Z"/>
        <path d="M70.52,103.24h-.64v-3.08l-1.25,1.75h-.58l-1.19-1.71v3.04h-.64v-4.29h.57l1.56,2.24,1.6-2.24h.57v4.29Z"/>
        <path d="M75.16,103.24h-.65v-.98l-.09-.21h-2.24l-.1.21v.98h-.64v-1.12l1.46-3.17h.79l1.46,3.17v1.12ZM72.48,101.41h1.64l-.82-1.78-.82,1.78Z"/>
        <path d="M78.63,103.24h-1.4l-1.24-.9v-2.5l1.24-.9h1.4l1.25.91-.55.4-.91-.66h-.97l-.77.56v1.88l.77.56h.97l.91-.66.55.4-1.25.91Z"/>
        <path d="M82.65,103.24h-2.08v-.64h.73v-3.01h-.73v-.64h2.08v.64h-.7v3.01h.7v.64Z"/>
        <path d="M86.03,99l1.18.85v2.59l-1.18.85h-1.39l-1.18-.85v-2.59l1.18-.85h1.39ZM86.57,102.11v-1.92l-.74-.54h-.97l-.74.54v1.92l.74.54h.97l.74-.54ZM86.29,97.91l-.68.9h-.67l.42-.9h.93Z"/>
        <path d="M91.52,103.24l-2.6-3.26v3.26h-.64v-4.29h.62l2.6,3.26v-3.26h.64v4.29h-.62Z"/>
        <path d="M93.92,102.23h-.64v-3.28h.64v3.28ZM93.92,103.24h-.64v-.65h.64v.65Z"/>
      </g>
    </g>
  </g>
</svg>