<?xml version="1.0" encoding="UTF-8"?>
<svg id="Capa_1" data-name="Capa 1" xmlns="http://www.w3.org/2000/svg" viewBox="0 0 100 100">
  <defs>
    <style>
      .cls-1 {
        fill: #fff;
      }
    </style>
  </defs>
  <path d="M9.43,70.7V31.54c0-11.81,9.67-21.48,21.48-21.48h39.16c11.81,0,21.48,9.67,21.48,21.48v39.16c0,11.81-9.67,21.48-21.48,21.48H30.91c-11.81,0-21.48-9.67-21.48-21.48Z"/>
  <path class="cls-1" d="M73.99,36.62v29.31c0,5.64-4.57,10.21-10.21,10.21h-26.58c-5.64,0-10.21-4.57-10.21-10.21v-29.31c0-.66.54-1.19,1.2-1.19h44.59c.66,0,1.2.53,1.2,1.19Z"/>
  <path class="cls-1" d="M62.45,35.43c-.39-6.26-5.6-11.21-11.95-11.21s-11.56,4.95-11.95,11.21c-.02.26-.03.51-.03.77,0,5.92,4.29,10.83,9.93,11.8.67.12,1.36.18,2.05.18,1.02,0,2.01-.13,2.95-.37,5.19-1.31,9.03-6.01,9.03-11.61,0-.26,0-.52-.03-.77ZM50.49,29.39c3.5,0,6.39,2.64,6.77,6.04h-13.54c.38-3.4,3.27-6.04,6.77-6.04Z"/>
  <path d="M35.27,48.44c-.11-.26.02-.55.29-.64,1.25-.41,4.55-1.39,5.79-.89,1.67.67,2.5,1.67,2.11,4s-1.17,7.01-.95,7.84.89,2,2.61.44,2.61-5,2.89-7.56c.2-1.81.37-3.26.45-3.95.03-.25.25-.44.5-.44h3.97c.31,0,.54.27.5.58l-1.29,8.76c-.06.4-.14.81-.23,1.2-.16.7-.26,2.17,1.6,2.18,1.22,0,2.14-1.41,2.75-2.82s.92-2.91.99-4.44l.24-5.02c.01-.22.19-.39.41-.39h4.1c.16,0,.29.13.3.29.03.9.31,3.77,2.58,6.44.15.18.21.42.15.65l-.86,2.98c-.05.17-.24.24-.39.16l-1.22-.7c-.39-.22-.88-.02-.99.41-.39,1.57-1.7,4.82-5.95,6.51-4.27,1.7-6.56-.43-7.45-1.62-.24-.33-.73-.36-1.01-.07-.87.87-2.7,2.33-5.27,2.33-1.68,0-2.72-.9-3.35-1.88-.69-1.07-.93-2.38-.76-3.65l1.02-7.58c.02-.15-.12-.27-.27-.23l-1.4.41c-.23.07-.47-.05-.57-.27l-1.3-3.04Z"/>
</svg>