<?xml version="1.0" encoding="UTF-8"?>
<svg id="Capa_1" data-name="Capa 1" xmlns="http://www.w3.org/2000/svg" viewBox="0 0 100 100">
  <defs>
    <style>
      .cls-1 {
        fill: #fff;
      }
    </style>
  </defs>
  <path d="M8.81,71.26v-39.16c0-11.81,9.67-21.48,21.48-21.48h39.16c11.81,0,21.48,9.67,21.48,21.48v39.16c0,11.81-9.67,21.48-21.48,21.48H30.29c-11.81,0-21.48-9.67-21.48-21.48Z"/>
  <path class="cls-1" d="M71.85,45.71c0-5.45-4.41-9.86-9.86-9.86h-25.21c-5.45,0-9.86,4.41-9.86,9.86v11.73c0,5.45,4.41,9.86,9.86,9.86h25.21c5.45,0,9.86-4.41,9.86-9.86v-11.73ZM57.03,52.46l-11.31,5.59c-.44.24-1.95-.08-1.95-.58v-11.48c0-.51,1.52-.83,1.96-.58l10.82,5.89c.45.26.93.92.47,1.16Z"/>
</svg>